<svg width="20" height="20" viewBox="0 0 20 20" fill="none" xmlns="http://www.w3.org/2000/svg">
<rect width="20" height="20" fill="#F5F5F5"/>
<g id="Tela de Higiene" clip-path="url(#clip0_0_1)">
<rect width="1920" height="1080" transform="translate(-387 -623)" fill="white"/>
<g id="Card">
<g clip-path="url(#clip1_0_1)">
<g id="Text+ icon">
<g id="Icon+ bg">
<rect x="-4" y="-4" width="28" height="28" rx="14" fill="#F8F9FA"/>
<g id="heart">
<path id="Vector" d="M17.3651 3.84172C16.9395 3.41589 16.4342 3.0781 15.8779 2.84763C15.3217 2.61716 14.7255 2.49854 14.1235 2.49854C13.5214 2.49854 12.9252 2.61716 12.369 2.84763C11.8128 3.0781 11.3074 3.41589 10.8818 3.84172L9.99847 4.72506L9.11514 3.84172C8.25539 2.98198 7.08933 2.49898 5.87347 2.49898C4.65761 2.49898 3.49155 2.98198 2.6318 3.84172C1.77206 4.70147 1.28906 5.86753 1.28906 7.08339C1.28906 8.29925 1.77206 9.46531 2.6318 10.3251L3.51514 11.2084L9.99847 17.6917L16.4818 11.2084L17.3651 10.3251C17.791 9.89943 18.1288 9.39407 18.3592 8.83785C18.5897 8.28164 18.7083 7.68546 18.7083 7.08339C18.7083 6.48132 18.5897 5.88514 18.3592 5.32893C18.1288 4.77271 17.791 4.26735 17.3651 3.84172Z" stroke="#FD7E14" stroke-width="2" stroke-linecap="round" stroke-linejoin="round"/>
</g>
</g>
</g>
</g>
<rect x="-261.5" y="-329.5" width="305" height="397" rx="19.5" stroke="#F8F9FA"/>
</g>
</g>
<defs>
<clipPath id="clip0_0_1">
<rect width="1920" height="1080" fill="white" transform="translate(-387 -623)"/>
</clipPath>
<clipPath id="clip1_0_1">
<rect x="-262" y="-330" width="306" height="398" rx="20" fill="white"/>
</clipPath>
</defs>
</svg>
